<svg xmlns="http://www.w3.org/2000/svg" width="400" height="400" version="1.0" viewBox="0 0 300 300"><path d="M125 2.4C93 8.1 67.2 21.6 44 44.9 22.8 66.3 9.6 90.6 3.3 120c-2.6 12.1-2.6 46.8 0 59 9.9 46.5 40 85 82 105 32 15.2 66.9 18.7 101.2 10 52.6-13.2 94.3-54.9 107.5-107.5 8.7-34.3 5.2-69.2-10-101.2-19.8-41.7-57.8-71.6-104-81.8-10.1-2.3-44.5-2.9-55-1.1zm3.6 70.2 4.9 2.6 6.7-2.2c12.3-4 17-1.2 16.9 10.2-.1 8.6-2.3 16.6-7.5 27.3-10.3 21-20.7 24.2-14.2 4.4 3.3-9.9 4.2-18 2.6-23.8-1.2-4.5-4.9-9.1-7.3-9.1-2.1 0-13.1 9.9-19.5 17.6-15.1 18.1-28.6 46.8-33.9 71.6-2.6 12.2-2.4 29.9.3 35.9 5.8 12.5 23.9 9.7 38.7-6.1 10.2-10.8 13.9-18.6 20.7-42.7 2.6-9.3 5.9-13.3 10.9-13.3 4.6 0 8.1 2.4 8.1 5.4 0 1.3-1.7 6.6-3.9 11.7-4.9 12-6.6 20.7-6.5 34.4 0 13.5 1.4 18.7 6.4 23.7 3.1 3.2 4.5 3.8 7.9 3.8 5 0 5.2 1.2 1.2 6.8-7.3 10-19.3 7-25.2-6.3-1-2.2-2.3-7.8-2.9-12.5-.6-4.7-1.4-8.7-1.6-8.9-.2-.3-1.2.6-2.1 2-3.7 5.3-13 14.2-18.4 17.4-21.9 13.4-41 3.8-48.6-24.5-2.4-9.2-2.4-31.5.1-43 6.7-31.3 25.2-67.9 39.6-78.5 9.6-7 18.3-8.3 26.6-3.9zm113.4 23c.5.5-1.8 5.1-5.2 10.4-3.3 5.2-9.7 17.1-14.3 26.5-14.5 29.6-21.9 51.1-21.3 61.7.6 10.3 4.2 7.3 24.8-20.7 5.9-8 9.7-12.2 10.3-11.6 1.2 1.2.5 2.4-18.7 31.4-11 16.7-15.6 22.9-17.4 23.4-3.3.8-7.2-2.3-9.7-7.5-1.1-2.3-2.2-4.2-2.5-4.2-.3.1-1.7 1.8-3.2 4-3.7 5.3-6.6 7-13.1 7.7-4.5.5-6.2.2-9.6-1.8-12.9-7.2-13.1-35.9-.5-62.5 4-8.6 8.3-14 13.6-17.7 7-4.7 14-3 19.8 4.8 1.9 2.5 3.6 4.5 3.9 4.5.3 0 2.8-6 5.5-13.3 5-13.6 13.1-32.5 14.6-34.1 2.3-2.4 20.9-3.1 23-1z"/><path d="M188.4 146c-8 3.2-17.7 25.8-19.1 44.6-.7 9.8 0 13.4 2.6 13.4 2 0 7.2-5.3 9.4-9.8 2.1-4 15.7-42.7 15.7-44.4 0-3-5-5.2-8.6-3.8z"/></svg>
